# xmcd
#
# Track frame offsets: 
#        150
#        36762
#        55405
#        85792
#        92672
#        113445
#        137855
#        163747
#        171522
#        189170
#        209857
#        235210
#
# Disc length: 3556 seconds
#
# Revision: 1
# Processed by: cddbd v1.5.2PL0 Copyright (c) Steve Scherf et al.
# Submitted via: ExactAudioCopy v1.0b3
#
DISCID=a40de20c
DTITLE=Gebhard Ullmann - Essencia
DYEAR=2001
DGENRE=Jazz
TTITLE0=Sombras E Nevoeiro - A Luz Da Sombra
TTITLE1=Essencia grave
TTITLE2=Gospel
TTITLE3=Haiku
TTITLE4=O Profeta II
TTITLE5=Pinoquio
TTITLE6=Bella und Herr T.
TTITLE7=Walking Poem No.2
TTITLE8=Planicies
TTITLE9=Essencia largo
TTITLE10=Chinesisches Gedicht No.3
TTITLE11=Simple Melody
EXTD=YEAR: 2001
EXTT0=
EXTT1=
EXTT2=
EXTT3=
EXTT4=
EXTT5=
EXTT6=
EXTT7=
EXTT8=
EXTT9=
EXTT10=
EXTT11=
PLAYORDER=
